<svg xmlns="http://www.w3.org/2000/svg" xmlns:xlink="http://www.w3.org/1999/xlink" width="500" zoomAndPan="magnify" viewBox="0 0 375 374.999991" height="500" preserveAspectRatio="xMidYMid meet" version="1.0"><defs><g/><clipPath id="9f72d1947f"><path d="M 116.824219 95 L 257.824219 95 L 257.824219 170 L 116.824219 170 Z M 116.824219 95 " clip-rule="nonzero"/></clipPath><clipPath id="d05e906932"><path d="M 140 56.078125 L 234 56.078125 L 234 101 L 140 101 Z M 140 56.078125 " clip-rule="nonzero"/></clipPath><clipPath id="893111072b"><path d="M 147 150 L 228 150 L 228 209.078125 L 147 209.078125 Z M 147 150 " clip-rule="nonzero"/></clipPath></defs><rect x="-37.5" width="450" fill="#ffffff" y="-37.499999" height="449.999989" fill-opacity="1"/><rect x="-37.5" width="450" fill="#5150ff" y="-37.499999" height="449.999989" fill-opacity="1"/><g clip-path="url(#9f72d1947f)"><path fill="#ffffff" d="M 255.472656 160.050781 L 255.472656 105.464844 C 255.472656 101.367188 252.128906 98.027344 248.035156 98.027344 L 236.238281 98.027344 L 236.238281 105.28125 L 138.5 105.28125 L 138.5 98.027344 L 126.703125 98.027344 C 122.609375 98.027344 119.289062 101.367188 119.289062 105.464844 L 119.289062 160.050781 C 119.289062 164.152344 122.609375 167.472656 126.703125 167.472656 L 144.484375 167.472656 L 144.484375 143.957031 L 230.261719 143.957031 L 230.261719 167.472656 L 248.035156 167.472656 C 252.128906 167.472656 255.472656 164.152344 255.472656 160.050781 Z M 257.828125 105.464844 L 257.828125 160.050781 C 257.828125 165.449219 253.421875 169.824219 248.035156 169.824219 L 227.90625 169.824219 L 227.90625 146.3125 L 146.839844 146.3125 L 146.839844 169.824219 L 126.703125 169.824219 C 121.3125 169.824219 116.9375 165.449219 116.9375 160.050781 L 116.9375 105.464844 C 116.9375 100.078125 121.3125 95.671875 126.703125 95.671875 L 140.851562 95.671875 L 140.851562 102.929688 L 233.882812 102.929688 L 233.882812 95.671875 L 248.035156 95.671875 C 253.421875 95.671875 257.828125 100.078125 257.828125 105.464844 " fill-opacity="1" fill-rule="nonzero"/></g><path fill="#ffffff" d="M 217.460938 133.925781 L 217.460938 125.070312 L 188.007812 125.070312 L 188.007812 133.925781 Z M 230.140625 133.925781 L 230.140625 125.070312 L 221.265625 125.070312 L 221.265625 133.925781 Z M 255.472656 105.464844 L 255.472656 160.050781 C 255.472656 164.152344 252.128906 167.472656 248.035156 167.472656 L 230.261719 167.472656 L 230.261719 143.957031 L 144.484375 143.957031 L 144.484375 167.472656 L 126.703125 167.472656 C 122.609375 167.472656 119.289062 164.152344 119.289062 160.050781 L 119.289062 105.464844 C 119.289062 101.367188 122.609375 98.027344 126.703125 98.027344 L 138.5 98.027344 L 138.5 105.28125 L 236.238281 105.28125 L 236.238281 98.027344 L 248.035156 98.027344 C 252.128906 98.027344 255.472656 101.367188 255.472656 105.464844 " fill-opacity="1" fill-rule="nonzero"/><g clip-path="url(#d05e906932)"><path fill="#ffffff" d="M 231.4375 95.480469 L 231.4375 60.554688 C 231.4375 59.378906 230.472656 58.433594 229.324219 58.433594 L 145.421875 58.433594 C 144.265625 58.433594 143.328125 59.378906 143.328125 60.554688 L 143.328125 95.480469 L 145.773438 95.480469 L 145.773438 98 L 228.964844 98 L 228.964844 95.480469 Z M 233.792969 95.671875 L 233.792969 97.835938 L 231.316406 97.835938 L 231.316406 100.355469 L 143.417969 100.355469 L 143.417969 97.835938 L 140.972656 97.835938 L 140.972656 60.554688 C 140.972656 58.074219 142.976562 56.078125 145.421875 56.078125 L 229.324219 56.078125 C 231.769531 56.078125 233.792969 58.074219 233.792969 60.554688 L 233.792969 95.671875 " fill-opacity="1" fill-rule="nonzero"/></g><path fill="#d9d9d9" d="M 231.4375 60.554688 L 231.4375 95.480469 L 228.964844 95.480469 L 228.964844 98 L 145.773438 98 L 145.773438 95.480469 L 143.328125 95.480469 L 143.328125 60.554688 C 143.328125 59.378906 144.265625 58.433594 145.421875 58.433594 L 229.324219 58.433594 C 230.472656 58.433594 231.4375 59.378906 231.4375 60.554688 " fill-opacity="1" fill-rule="nonzero"/><path fill="#ffffff" d="M 227.785156 131.574219 L 227.785156 127.425781 L 223.621094 127.425781 L 223.621094 131.574219 Z M 230.140625 125.070312 L 230.140625 133.925781 L 221.265625 133.925781 L 221.265625 125.070312 L 230.140625 125.070312 " fill-opacity="1" fill-rule="nonzero"/><path fill="#ffffff" d="M 227.785156 127.425781 L 227.785156 131.574219 L 223.621094 131.574219 L 223.621094 127.425781 L 227.785156 127.425781 " fill-opacity="1" fill-rule="nonzero"/><g clip-path="url(#893111072b)"><path fill="#ffffff" d="M 224.726562 206.734375 L 224.726562 169.824219 L 221.578125 169.824219 L 221.578125 152.640625 L 153.164062 152.640625 L 153.164062 169.824219 L 150.011719 169.824219 L 150.011719 206.734375 Z M 227.078125 169.824219 L 227.078125 209.089844 L 147.65625 209.089844 L 147.65625 167.472656 L 150.8125 167.472656 L 150.8125 150.285156 L 223.933594 150.285156 L 223.933594 167.472656 L 227.078125 167.472656 L 227.078125 169.824219 " fill-opacity="1" fill-rule="nonzero"/></g><path fill="#5271ff" d="M 197.378906 171.304688 L 197.378906 163.730469 L 160.890625 163.730469 L 160.890625 171.304688 Z M 197.378906 183.480469 L 197.378906 175.902344 L 160.890625 175.902344 L 160.890625 183.480469 Z M 197.378906 195.644531 L 197.378906 188.097656 L 160.890625 188.097656 L 160.890625 195.644531 Z M 224.726562 169.824219 L 224.726562 206.734375 L 150.011719 206.734375 L 150.011719 169.824219 L 153.164062 169.824219 L 153.164062 152.640625 L 221.578125 152.640625 L 221.578125 169.824219 L 224.726562 169.824219 " fill-opacity="1" fill-rule="nonzero"/><path fill="#ffffff" d="M 215.105469 131.574219 L 215.105469 127.425781 L 190.363281 127.425781 L 190.363281 131.574219 Z M 217.460938 125.070312 L 217.460938 133.925781 L 188.007812 133.925781 L 188.007812 125.070312 L 217.460938 125.070312 " fill-opacity="1" fill-rule="nonzero"/><path fill="#ffffff" d="M 215.105469 127.425781 L 215.105469 131.574219 L 190.363281 131.574219 L 190.363281 127.425781 L 215.105469 127.425781 " fill-opacity="1" fill-rule="nonzero"/><path fill="#ffffff" d="M 195.023438 193.292969 L 195.023438 190.449219 L 163.242188 190.449219 L 163.242188 193.292969 Z M 197.378906 188.097656 L 197.378906 195.644531 L 160.890625 195.644531 L 160.890625 188.097656 L 197.378906 188.097656 " fill-opacity="1" fill-rule="nonzero"/><path fill="#ffffff" d="M 195.023438 181.125 L 195.023438 178.257812 L 163.242188 178.257812 L 163.242188 181.125 Z M 197.378906 175.902344 L 197.378906 183.480469 L 160.890625 183.480469 L 160.890625 175.902344 L 197.378906 175.902344 " fill-opacity="1" fill-rule="nonzero"/><path fill="#ffffff" d="M 195.023438 168.953125 L 195.023438 166.082031 L 163.242188 166.082031 L 163.242188 168.953125 Z M 197.378906 163.730469 L 197.378906 171.304688 L 160.890625 171.304688 L 160.890625 163.730469 L 197.378906 163.730469 " fill-opacity="1" fill-rule="nonzero"/><path fill="#ffffff" d="M 195.023438 190.449219 L 195.023438 193.292969 L 163.242188 193.292969 L 163.242188 190.449219 L 195.023438 190.449219 " fill-opacity="1" fill-rule="nonzero"/><path fill="#ffffff" d="M 195.023438 178.257812 L 195.023438 181.125 L 163.242188 181.125 L 163.242188 178.257812 L 195.023438 178.257812 " fill-opacity="1" fill-rule="nonzero"/><path fill="#ffffff" d="M 195.023438 166.082031 L 195.023438 168.953125 L 163.242188 168.953125 L 163.242188 166.082031 L 195.023438 166.082031 " fill-opacity="1" fill-rule="nonzero"/><g fill="#ffffff" fill-opacity="1"><g transform="translate(84.449777, 251.302282)"><g><path d="M 16.734375 -13.375 C 18.492188 -12.945312 19.796875 -12.234375 20.640625 -11.234375 C 21.484375 -10.234375 21.90625 -8.914062 21.90625 -7.28125 C 21.90625 -2.289062 17.992188 0.203125 10.171875 0.203125 C 7.878906 0.203125 5.53125 0.132812 3.125 0 L 3.40625 -7.6875 L 3.125 -25.796875 L 12.296875 -25.828125 C 14.941406 -25.828125 17 -25.269531 18.46875 -24.15625 C 19.9375 -23.050781 20.671875 -21.457031 20.671875 -19.375 C 20.671875 -17.988281 20.328125 -16.773438 19.640625 -15.734375 C 18.960938 -14.691406 17.992188 -13.90625 16.734375 -13.375 Z M 15.09375 -18.65625 C 15.09375 -19.832031 14.742188 -20.664062 14.046875 -21.15625 C 13.359375 -21.65625 12.144531 -21.90625 10.40625 -21.90625 L 8.453125 -21.90625 L 8.328125 -14.890625 L 12.09375 -14.78125 C 13.101562 -15.039062 13.851562 -15.476562 14.34375 -16.09375 C 14.84375 -16.707031 15.09375 -17.5625 15.09375 -18.65625 Z M 11.09375 -3.6875 C 12.769531 -3.6875 14.066406 -4.019531 14.984375 -4.6875 C 15.910156 -5.351562 16.375 -6.3125 16.375 -7.5625 C 16.375 -9.457031 15.144531 -10.632812 12.6875 -11.09375 L 8.25 -11.015625 L 8.203125 -8.171875 L 8.328125 -3.84375 C 9.265625 -3.738281 10.1875 -3.6875 11.09375 -3.6875 Z M 11.09375 -3.6875 "/></g></g></g><g fill="#ffffff" fill-opacity="1"><g transform="translate(107.630635, 251.302282)"><g><path d="M 17.265625 -4.046875 L 16.90625 0 L 2.96875 0 L 3.25 -7.6875 L 2.96875 -25.796875 L 8.484375 -25.796875 L 8.171875 -8.171875 L 8.296875 -4.484375 L 16.9375 -4.484375 Z M 17.265625 -4.046875 "/></g></g></g><g fill="#ffffff" fill-opacity="1"><g transform="translate(124.966221, 251.302282)"><g><path d="M 22.953125 -12.6875 L 22.90625 -9.296875 C 22.9375 -6.222656 22.039062 -3.84375 20.21875 -2.15625 C 18.40625 -0.476562 15.804688 0.359375 12.421875 0.359375 C 9.160156 0.359375 6.675781 -0.453125 4.96875 -2.078125 C 3.257812 -3.710938 2.441406 -6.050781 2.515625 -9.09375 L 2.5625 -12.8125 L 2.4375 -25.796875 L 7.890625 -25.796875 L 7.609375 -9.8125 C 7.578125 -7.863281 7.988281 -6.421875 8.84375 -5.484375 C 9.695312 -4.546875 10.992188 -4.078125 12.734375 -4.078125 C 16.203125 -4.078125 17.925781 -5.894531 17.90625 -9.53125 L 17.625 -25.796875 L 23.140625 -25.796875 Z M 22.953125 -12.6875 "/></g></g></g><g fill="#ffffff" fill-opacity="1"><g transform="translate(150.509207, 251.302282)"><g><path d="M 19.34375 -4.484375 L 19.65625 -4.046875 L 19.296875 0 L 3.125 0 L 3.40625 -7.6875 L 3.125 -25.796875 L 19.46875 -25.796875 L 19.78125 -25.34375 L 19.375 -21.3125 L 13.21875 -21.5 L 8.5625 -21.46875 L 8.453125 -15.265625 L 12.890625 -15.171875 L 17.09375 -15.296875 L 17.421875 -14.890625 L 17.0625 -10.859375 L 12.5 -10.96875 L 8.375 -10.9375 L 8.328125 -8.171875 L 8.453125 -4.28125 L 12.96875 -4.25 Z M 19.34375 -4.484375 "/></g></g></g><g fill="#ffffff" fill-opacity="1"><g transform="translate(170.887533, 251.302282)"><g><path d="M 19.578125 -25.34375 L 19.265625 -21.3125 L 14.421875 -21.546875 L 12.8125 -21.546875 L 12.609375 -8.171875 L 12.859375 0 L 7.40625 0 L 7.6875 -7.6875 L 7.484375 -21.546875 L 5.890625 -21.546875 L 0.96875 -21.3125 L 0.59375 -21.75 L 0.96875 -25.796875 L 19.265625 -25.796875 Z M 19.578125 -25.34375 "/></g></g></g><g fill="#ffffff" fill-opacity="1"><g transform="translate(191.025651, 251.302282)"><g><path d="M 13.328125 -26.15625 C 16.960938 -26.15625 19.757812 -25.050781 21.71875 -22.84375 C 23.6875 -20.644531 24.671875 -17.515625 24.671875 -13.453125 C 24.671875 -9.023438 23.601562 -5.609375 21.46875 -3.203125 C 19.332031 -0.796875 16.316406 0.40625 12.421875 0.40625 C 8.816406 0.40625 6.03125 -0.722656 4.0625 -2.984375 C 2.101562 -5.242188 1.125 -8.441406 1.125 -12.578125 C 1.125 -16.929688 2.179688 -20.28125 4.296875 -22.625 C 6.421875 -24.976562 9.429688 -26.15625 13.328125 -26.15625 Z M 12.859375 -21.78125 C 10.722656 -21.78125 9.171875 -21.113281 8.203125 -19.78125 C 7.242188 -18.445312 6.765625 -16.269531 6.765625 -13.25 C 6.765625 -9.8125 7.238281 -7.359375 8.1875 -5.890625 C 9.132812 -4.421875 10.703125 -3.6875 12.890625 -3.6875 C 15.023438 -3.6875 16.570312 -4.359375 17.53125 -5.703125 C 18.5 -7.054688 18.984375 -9.265625 18.984375 -12.328125 C 18.984375 -15.722656 18.507812 -18.144531 17.5625 -19.59375 C 16.613281 -21.050781 15.046875 -21.78125 12.859375 -21.78125 Z M 12.859375 -21.78125 "/></g></g></g><g fill="#ffffff" fill-opacity="1"><g transform="translate(216.768815, 251.302282)"><g><path d="M 13.328125 -26.15625 C 16.960938 -26.15625 19.757812 -25.050781 21.71875 -22.84375 C 23.6875 -20.644531 24.671875 -17.515625 24.671875 -13.453125 C 24.671875 -9.023438 23.601562 -5.609375 21.46875 -3.203125 C 19.332031 -0.796875 16.316406 0.40625 12.421875 0.40625 C 8.816406 0.40625 6.03125 -0.722656 4.0625 -2.984375 C 2.101562 -5.242188 1.125 -8.441406 1.125 -12.578125 C 1.125 -16.929688 2.179688 -20.28125 4.296875 -22.625 C 6.421875 -24.976562 9.429688 -26.15625 13.328125 -26.15625 Z M 12.859375 -21.78125 C 10.722656 -21.78125 9.171875 -21.113281 8.203125 -19.78125 C 7.242188 -18.445312 6.765625 -16.269531 6.765625 -13.25 C 6.765625 -9.8125 7.238281 -7.359375 8.1875 -5.890625 C 9.132812 -4.421875 10.703125 -3.6875 12.890625 -3.6875 C 15.023438 -3.6875 16.570312 -4.359375 17.53125 -5.703125 C 18.5 -7.054688 18.984375 -9.265625 18.984375 -12.328125 C 18.984375 -15.722656 18.507812 -18.144531 17.5625 -19.59375 C 16.613281 -21.050781 15.046875 -21.78125 12.859375 -21.78125 Z M 12.859375 -21.78125 "/></g></g></g><g fill="#ffffff" fill-opacity="1"><g transform="translate(242.511978, 251.302282)"><g><path d="M 19.578125 -25.34375 L 19.265625 -21.3125 L 14.421875 -21.546875 L 12.8125 -21.546875 L 12.609375 -8.171875 L 12.859375 0 L 7.40625 0 L 7.6875 -7.6875 L 7.484375 -21.546875 L 5.890625 -21.546875 L 0.96875 -21.3125 L 0.59375 -21.75 L 0.96875 -25.796875 L 19.265625 -25.796875 Z M 19.578125 -25.34375 "/></g></g></g><g fill="#ffffff" fill-opacity="1"><g transform="translate(262.650096, 251.302282)"><g><path d="M 24.625 -8.171875 L 24.78125 0 L 19.375 0 L 19.625 -7.6875 L 19.578125 -10.6875 L 13.78125 -10.734375 L 8.53125 -10.65625 L 8.484375 -8.171875 L 8.6875 0 L 3.28125 0 L 3.5625 -7.6875 L 3.28125 -25.796875 L 8.765625 -25.796875 L 8.609375 -15.140625 L 14.140625 -15.0625 L 19.546875 -15.140625 L 19.375 -25.796875 L 24.90625 -25.796875 Z M 24.625 -8.171875 "/></g></g></g><g fill="#ffffff" fill-opacity="1"><g transform="translate(138.262799, 292.376123)"><g><path d="M 14.5625 -14.375 L 8.71875 -5.046875 L 9.90625 -7.8125 L 9.90625 -5.046875 C 9.90625 -4.710938 9.910156 -4.363281 9.921875 -4 C 9.929688 -3.644531 9.9375 -3.316406 9.9375 -3.015625 C 9.945312 -2.710938 9.96875 -2.453125 10 -2.234375 C 10.03125 -2.015625 10.050781 -1.878906 10.0625 -1.828125 L 12 -1.40625 L 11.921875 0 L 4.21875 0 L 4.140625 -1.40625 L 6.0625 -1.828125 C 6.082031 -1.878906 6.101562 -2.015625 6.125 -2.234375 C 6.144531 -2.453125 6.160156 -2.710938 6.171875 -3.015625 C 6.191406 -3.316406 6.203125 -3.644531 6.203125 -4 C 6.203125 -4.363281 6.203125 -4.710938 6.203125 -5.046875 L 6.203125 -7.8125 L 7.125 -5.046875 L 1.59375 -14.375 L 0.1875 -14.8125 L 0.28125 -16.1875 L 7.5625 -16.1875 L 7.640625 -14.8125 L 5.90625 -14.375 L 9.40625 -8.328125 L 8.75 -8.328125 L 12.25 -14.375 L 10.3125 -14.8125 L 10.40625 -16.1875 L 15.890625 -16.1875 L 15.96875 -14.8125 Z M 14.5625 -14.375 "/></g></g></g><g fill="#ffffff" fill-opacity="1"><g transform="translate(157.243337, 292.376123)"><g><path d="M -0.03125 0 L -0.109375 -1.375 L 1.328125 -1.828125 L 6.921875 -15.390625 L 9.234375 -16.6875 L 15.59375 -1.828125 L 17.015625 -1.375 L 16.9375 0 L 9.546875 0 L 9.46875 -1.375 L 11.234375 -1.828125 L 9.734375 -5.375 L 9.4375 -6.3125 L 6.671875 -12.828125 L 7.46875 -12.609375 L 5.1875 -6.40625 L 4.9375 -5.578125 L 3.609375 -1.828125 L 5.375 -1.375 L 5.296875 0 Z M 4.28125 -4.6875 L 4.28125 -6.5625 C 4.644531 -6.539062 5.054688 -6.515625 5.515625 -6.484375 C 5.972656 -6.460938 6.585938 -6.453125 7.359375 -6.453125 C 8.097656 -6.453125 8.710938 -6.460938 9.203125 -6.484375 C 9.691406 -6.515625 10.109375 -6.539062 10.453125 -6.5625 L 10.453125 -4.71875 C 10.109375 -4.71875 9.6875 -4.722656 9.1875 -4.734375 C 8.6875 -4.753906 8.078125 -4.765625 7.359375 -4.765625 C 6.609375 -4.765625 5.992188 -4.753906 5.515625 -4.734375 C 5.035156 -4.722656 4.625 -4.707031 4.28125 -4.6875 Z M 4.28125 -4.6875 "/></g></g></g><g fill="#ffffff" fill-opacity="1"><g transform="translate(176.857969, 292.376123)"><g><path d="M 13.9375 0.140625 C 13.675781 0.117188 13.316406 0.0976562 12.859375 0.078125 C 12.398438 0.0664062 11.929688 0.0507812 11.453125 0.03125 C 10.972656 0.0078125 10.566406 0 10.234375 0 L 3.8125 0 C 3.4375 0 3.066406 0.00390625 2.703125 0.015625 C 2.335938 0.0234375 1.976562 0.046875 1.625 0.078125 L 1.625 -1.359375 L 10.34375 -15.75 L 10.34375 -14.59375 L 5.6875 -14.59375 C 5.113281 -14.59375 4.660156 -14.570312 4.328125 -14.53125 C 3.992188 -14.5 3.691406 -14.460938 3.421875 -14.421875 L 2.890625 -11.59375 L 1.1875 -11.59375 L 1.125 -16.25 C 1.570312 -16.226562 2.046875 -16.210938 2.546875 -16.203125 C 3.054688 -16.191406 3.484375 -16.1875 3.828125 -16.1875 L 11.71875 -16.1875 C 12.070312 -16.1875 12.429688 -16.191406 12.796875 -16.203125 C 13.171875 -16.210938 13.53125 -16.226562 13.875 -16.25 L 13.875 -14.8125 L 5.328125 -0.609375 L 5.328125 -1.734375 L 10.484375 -1.734375 C 10.816406 -1.734375 11.082031 -1.742188 11.28125 -1.765625 C 11.488281 -1.785156 11.710938 -1.820312 11.953125 -1.875 L 13.109375 -5 L 14.765625 -4.796875 Z M 13.9375 0.140625 "/></g></g></g><g fill="#ffffff" fill-opacity="1"><g transform="translate(194.90115, 292.376123)"><g><path d="M 1.046875 0 L 0.96875 -1.375 L 2.703125 -1.828125 C 2.742188 -1.910156 2.773438 -2.144531 2.796875 -2.53125 C 2.828125 -2.925781 2.847656 -3.429688 2.859375 -4.046875 C 2.878906 -4.660156 2.890625 -5.332031 2.890625 -6.0625 L 2.890625 -10.09375 C 2.890625 -10.863281 2.878906 -11.554688 2.859375 -12.171875 C 2.847656 -12.796875 2.828125 -13.304688 2.796875 -13.703125 C 2.773438 -14.097656 2.742188 -14.320312 2.703125 -14.375 L 0.96875 -14.8125 L 1.046875 -16.1875 L 8.46875 -16.1875 L 8.546875 -14.8125 L 6.78125 -14.375 C 6.75 -14.300781 6.71875 -14.066406 6.6875 -13.671875 C 6.664062 -13.273438 6.648438 -12.769531 6.640625 -12.15625 C 6.628906 -11.539062 6.625 -10.851562 6.625 -10.09375 L 6.625 -6.0625 C 6.625 -5.351562 6.628906 -4.691406 6.640625 -4.078125 C 6.648438 -3.472656 6.664062 -2.972656 6.6875 -2.578125 C 6.71875 -2.179688 6.75 -1.929688 6.78125 -1.828125 L 8.546875 -1.375 L 8.46875 0 Z M 1.046875 0 "/></g></g></g><g fill="#ffffff" fill-opacity="1"><g transform="translate(207.237488, 292.376123)"><g><path d="M 10.3125 0.25 C 8.53125 0.25 6.957031 -0.0664062 5.59375 -0.703125 C 4.238281 -1.335938 3.175781 -2.253906 2.40625 -3.453125 C 1.644531 -4.660156 1.265625 -6.117188 1.265625 -7.828125 C 1.265625 -9.160156 1.5 -10.359375 1.96875 -11.421875 C 2.4375 -12.484375 3.109375 -13.382812 3.984375 -14.125 C 4.859375 -14.875 5.882812 -15.445312 7.0625 -15.84375 C 8.238281 -16.238281 9.523438 -16.4375 10.921875 -16.4375 C 11.765625 -16.4375 12.609375 -16.347656 13.453125 -16.171875 C 14.304688 -16.003906 15.023438 -15.78125 15.609375 -15.5 L 15.8125 -11.28125 L 14.09375 -11.171875 L 13.125 -14.0625 C 12.78125 -14.25 12.394531 -14.390625 11.96875 -14.484375 C 11.550781 -14.578125 11.117188 -14.625 10.671875 -14.625 C 9.609375 -14.625 8.707031 -14.375 7.96875 -13.875 C 7.238281 -13.375 6.675781 -12.664062 6.28125 -11.75 C 5.894531 -10.832031 5.703125 -9.75 5.703125 -8.5 C 5.703125 -7.082031 5.9375 -5.863281 6.40625 -4.84375 C 6.882812 -3.820312 7.515625 -3.035156 8.296875 -2.484375 C 9.085938 -1.929688 9.972656 -1.65625 10.953125 -1.65625 C 11.460938 -1.65625 11.960938 -1.722656 12.453125 -1.859375 C 12.941406 -1.992188 13.351562 -2.203125 13.6875 -2.484375 L 14.671875 -5.015625 L 16.53125 -4.828125 L 15.71875 -1.15625 C 15.15625 -0.789062 14.378906 -0.460938 13.390625 -0.171875 C 12.410156 0.109375 11.382812 0.25 10.3125 0.25 Z M 10.3125 0.25 "/></g></g></g><g fill="#ffffff" fill-opacity="1"><g transform="translate(227.210525, 292.376123)"><g><path d="M 1.046875 0 L 0.96875 -1.375 L 2.703125 -1.828125 C 2.742188 -1.910156 2.773438 -2.144531 2.796875 -2.53125 C 2.828125 -2.925781 2.847656 -3.429688 2.859375 -4.046875 C 2.878906 -4.660156 2.890625 -5.332031 2.890625 -6.0625 L 2.890625 -10.09375 C 2.890625 -10.863281 2.878906 -11.554688 2.859375 -12.171875 C 2.847656 -12.796875 2.828125 -13.304688 2.796875 -13.703125 C 2.773438 -14.097656 2.742188 -14.320312 2.703125 -14.375 L 0.96875 -14.8125 L 1.046875 -16.1875 L 8.46875 -16.1875 L 8.546875 -14.8125 L 6.78125 -14.375 C 6.75 -14.300781 6.71875 -14.066406 6.6875 -13.671875 C 6.664062 -13.273438 6.648438 -12.769531 6.640625 -12.15625 C 6.628906 -11.539062 6.625 -10.851562 6.625 -10.09375 L 6.625 -6.0625 C 6.625 -5.351562 6.628906 -4.691406 6.640625 -4.078125 C 6.648438 -3.472656 6.664062 -2.972656 6.6875 -2.578125 C 6.71875 -2.179688 6.75 -1.929688 6.78125 -1.828125 L 8.546875 -1.375 L 8.46875 0 Z M 1.046875 0 "/></g></g></g></svg>